<svg xmlns="http://www.w3.org/2000/svg" viewBox="0 0 1563.34 273.02"><defs><style>.a{fill:#b21919;}.b{fill:#2b8ee0;}.c{fill:#ff7518;}.d{fill:#002049;}.e{fill:#eae400;}</style></defs><path class="a" d="M1563.34,136.78l-145.88.94h-.18v-.94a73,73,0,1,1,146.06,0Z"/><path class="b" d="M1417.46,137.72l145.88-.94a73,73,0,1,1-146,.94Z"/><circle class="c" cx="199.41" cy="199.41" r="73.61"/><polygon class="d" points="0 0 0 91.39 0 273.02 91.39 273.02 91.39 91.39 273.03 91.39 273.03 0 91.39 0 0 0"/><polygon class="d" points="357.1 95.59 400.87 95.59 400.87 209.27 439.81 209.27 439.81 95.59 483.58 95.59 483.58 63.76 357.1 63.76 357.1 95.59"/><polygon class="d" points="498.35 209.27 602.94 209.27 602.94 177.44 537.86 177.44 537.86 152.43 597.83 152.43 597.83 120.6 537.86 120.6 537.86 95.59 603.23 95.59 603.23 63.76 498.35 63.76 498.35 209.27"/><path class="d" d="M666,63.76,618,209.27h42.63l8.41-27.85h48l8.4,27.85h42.64l-48-145.51ZM678,151.86l14.5-48h1.13l14.5,48Z"/><polygon class="d" points="866.69 146.18 864.98 146.18 831.16 63.76 781.99 63.76 781.99 209.27 820.65 209.27 820.65 124.58 821.78 124.58 854.18 208.14 877.49 208.14 909.89 125.15 911.02 125.15 911.02 209.27 949.68 209.27 949.68 63.76 900.51 63.76 866.69 146.18"/><polygon class="d" points="1008.22 209.27 1047.73 209.27 1047.73 152.43 1104.29 152.43 1104.29 120.6 1047.73 120.6 1047.73 95.59 1110.54 95.59 1110.54 63.76 1008.22 63.76 1008.22 209.27"/><path class="d" d="M1211.15,153.57a24.08,24.08,0,0,1-3,12,21.43,21.43,0,0,1-8.24,8.28,25.91,25.91,0,0,1-24.12,0,21.39,21.39,0,0,1-8.28-8.28,24.08,24.08,0,0,1-3-12V63.76H1125V157q0,16.62,7.85,28.74a51.3,51.3,0,0,0,22,18.69q14.14,6.57,33,6.57t32.83-6.57a51.7,51.7,0,0,0,22.06-18.69q7.92-12.12,7.92-28.74V63.76h-39.5Z"/><polygon class="d" points="1361.21 120.6 1308.92 120.6 1308.92 63.76 1269.41 63.76 1269.41 209.27 1308.92 209.27 1308.92 152.43 1361.21 152.43 1361.21 209.27 1400.72 209.27 1400.72 63.76 1361.21 63.76 1361.21 120.6"/><path class="e" d="M1526.75,192.36l.12-.11a4.07,4.07,0,0,0-.13-.5q-1.86-5.92-3.73-11.85-4.52-14.34-9-28.67a1,1,0,0,1,.45-1.33Q1531.77,137.45,1549,125l1.63-1.21h-.88l-43.44-.21c-1,0-1,0-1.32-1q-5.14-16.37-10.3-32.73L1492,81.17l-.2.56q-6.61,20.34-13.22,40.68c-.31,1-.32,1-1.33,1l-43.49-.21h-.86l7.44,5.49q14.28,10.53,28.58,21a1,1,0,0,1,.39,1.3c-.7,2.05-1.35,4.11-2,6.16q-5.57,17.11-11.14,34.23c-.06.18-.09.37-.17.7.29-.17.44-.25.58-.35l15.48-11.18q9.51-6.87,19-13.76a.74.74,0,0,1,1,0c1.19.92,2.41,1.79,3.61,2.68l30,22.13A10.12,10.12,0,0,0,1526.75,192.36Z"/></svg>