<?xml version="1.0" encoding="UTF-8" standalone="no"?>
<svg
   viewBox="0 0 1706.674 472"
   version="1.1"
   id="svg31"
   sodipodi:docname="logo30_4.svg"
   width="1706.674"
   height="472"
   inkscape:version="1.1.2 (0a00cf5339, 2022-02-04, custom)"
   xmlns:inkscape="http://www.inkscape.org/namespaces/inkscape"
   xmlns:sodipodi="http://sodipodi.sourceforge.net/DTD/sodipodi-0.dtd"
   xmlns="http://www.w3.org/2000/svg"
   xmlns:svg="http://www.w3.org/2000/svg">
  <sodipodi:namedview
     id="namedview33"
     pagecolor="#505050"
     bordercolor="#eeeeee"
     borderopacity="1"
     inkscape:pageshadow="0"
     inkscape:pageopacity="0"
     inkscape:pagecheckerboard="0"
     showgrid="false"
     inkscape:zoom="0.36182119"
     inkscape:cx="718.58699"
     inkscape:cy="994.9666"
     inkscape:window-width="1920"
     inkscape:window-height="1026"
     inkscape:window-x="0"
     inkscape:window-y="24"
     inkscape:window-maximized="1"
     inkscape:current-layer="svg31" />
  <defs
     id="defs4">
    <style
       id="style2">.cls-1{fill:#b21919;}.cls-2{fill:#2b8ee0;}.cls-3{fill:#ff7518;}.cls-4{fill:#002049;}.cls-5{fill:#eae400;}</style>
  </defs>
  <g
     id="Layer_2"
     data-name="Layer 2"
     transform="translate(-135.054,-337.515)">
    <path
       class="cls-1"
       d="m 1770.06,573.8 -145.88,0.94 H 1624 c 0,-0.31 0,-0.63 0,-0.94 a 73.03,73.03 0 0 1 146.06,0 z"
       id="path6" />
    <path
       class="cls-2"
       d="m 1624.18,574.74 145.88,-0.94 a 73.001513,73.001513 0 0 1 -146,0.94 z"
       id="path8" />
    <circle
       class="cls-3"
       cx="406.13"
       cy="636.42999"
       r="73.610001"
       id="circle10" />
    <polygon
       class="cls-4"
       points="206.72,528.41 206.72,710.04 298.11,710.04 298.11,528.41 479.75,528.41 479.75,437.02 298.11,437.02 206.72,437.02 "
       id="polygon12" />
    <polygon
       class="cls-4"
       points="607.59,532.61 607.59,646.29 646.53,646.29 646.53,532.61 690.3,532.61 690.3,500.78 563.82,500.78 563.82,532.61 "
       id="polygon14" />
    <polygon
       class="cls-4"
       points="809.95,532.61 809.95,500.78 705.07,500.78 705.07,646.29 809.66,646.29 809.66,614.46 744.58,614.46 744.58,589.45 804.55,589.45 804.55,557.62 744.58,557.62 744.58,532.61 "
       id="polygon16" />
    <path
       class="cls-4"
       d="m 872.75,500.78 -48,145.51 h 42.63 l 8.41,-27.85 h 48 l 8.4,27.85 h 42.64 l -48,-145.51 z m 11.94,88.1 14.5,-48 h 1.13 l 14.5,48 z"
       id="path18" />
    <polygon
       class="cls-4"
       points="1084.21,645.16 1116.61,562.17 1117.74,562.17 1117.74,646.29 1156.4,646.29 1156.4,500.78 1107.23,500.78 1073.41,583.2 1071.7,583.2 1037.88,500.78 988.71,500.78 988.71,646.29 1027.37,646.29 1027.37,561.6 1028.5,561.6 1060.9,645.16 "
       id="polygon20" />
    <polygon
       class="cls-4"
       points="1214.94,500.78 1214.94,646.29 1254.45,646.29 1254.45,589.45 1311.01,589.45 1311.01,557.62 1254.45,557.62 1254.45,532.61 1317.26,532.61 1317.26,500.78 "
       id="polygon22" />
    <path
       class="cls-4"
       d="m 1417.87,590.59 a 24.08,24.08 0 0 1 -3,12 21.43,21.43 0 0 1 -8.24,8.28 25.89,25.89 0 0 1 -24.12,0 21.39,21.39 0 0 1 -8.28,-8.28 24.08,24.08 0 0 1 -3,-12 v -89.81 h -39.51 V 594 q 0,16.62 7.85,28.74 a 51.32,51.32 0 0 0 22,18.69 q 14.15,6.57 33,6.57 18.85,0 32.83,-6.57 a 51.69,51.69 0 0 0 22.06,-18.69 q 7.92,-12.12 7.92,-28.74 v -93.22 h -39.5 z"
       id="path24" />
    <polygon
       class="cls-4"
       points="1607.44,646.29 1607.44,500.78 1567.93,500.78 1567.93,557.62 1515.64,557.62 1515.64,500.78 1476.13,500.78 1476.13,646.29 1515.64,646.29 1515.64,589.45 1567.93,589.45 1567.93,646.29 "
       id="polygon26" />
    <path
       class="cls-5"
       d="m 1733.47,629.38 0.12,-0.11 a 4.6,4.6 0 0 0 -0.13,-0.5 q -1.86,-5.92 -3.73,-11.85 -4.51,-14.34 -9,-28.67 a 1,1 0 0 1 0.45,-1.33 q 17.31,-12.45 34.57,-24.94 l 1.63,-1.21 h -0.88 l -43.44,-0.21 c -1,0 -1,0 -1.32,-1 q -5.15,-16.36 -10.3,-32.73 l -2.72,-8.64 -0.2,0.56 q -6.62,20.34 -13.22,40.68 c -0.31,1 -0.32,1 -1.33,0.95 l -43.49,-0.21 h -0.86 l 7.44,5.49 q 14.28,10.53 28.58,21 a 1,1 0 0 1 0.39,1.3 c -0.7,2.05 -1.35,4.11 -2,6.16 q -5.57,17.12 -11.14,34.23 c -0.06,0.18 -0.09,0.37 -0.17,0.7 0.29,-0.17 0.44,-0.25 0.58,-0.35 l 15.48,-11.18 q 9.51,-6.87 19,-13.76 a 0.74,0.74 0 0 1 1,0 c 1.19,0.92 2.41,1.79 3.61,2.68 l 30,22.13 c 0.37,0.33 0.73,0.57 1.08,0.81 z"
       id="path28" />
  </g>
</svg>
