<svg xmlns="http://www.w3.org/2000/svg" viewBox="0 0 1373.11 241.31"><defs><style>.a{fill:#fff;}.b{fill:#ff7518;}</style></defs><rect class="a" width="240.24" height="80.41"/><path class="b" d="M240.24,175.47a64.78,64.78,0,1,1-64.77-64.78,64.77,64.77,0,0,1,64.77,64.78"/><polygon class="a" points="314.22 84.11 314.22 56.1 425.52 56.1 425.52 84.11 387 84.11 387 184.15 352.74 184.15 352.74 84.11 314.22 84.11"/><polygon class="a" points="438.52 184.15 438.52 56.1 530.8 56.1 530.8 84.11 473.28 84.11 473.28 106.12 526.05 106.12 526.05 134.13 473.28 134.13 473.28 156.13 530.55 156.13 530.55 184.15 438.52 184.15"/><path class="a" d="M581.32,184.15H543.81l42.26-128h47.52l42.26,128.05H638.34l-28-92.79h-1Zm-7-50.53h70.52v26H574.32Z"/><polygon class="a" points="688.11 56.1 731.37 56.1 761.13 128.63 762.63 128.63 792.39 56.1 835.66 56.1 835.66 184.15 801.65 184.15 801.65 110.12 800.65 110.12 772.14 183.15 751.63 183.15 723.12 109.62 722.12 109.62 722.12 184.15 688.11 184.15 688.11 56.1"/><polygon class="a" points="887.18 184.15 887.18 56.1 977.21 56.1 977.21 84.11 921.94 84.11 921.94 106.12 971.71 106.12 971.71 134.13 921.94 134.13 921.94 184.15 887.18 184.15"/><path class="a" d="M1065.74,56.1h34.76v82q0,14.64-7,25.3a45.52,45.52,0,0,1-19.41,16.44q-12.45,5.79-28.89,5.78t-29-5.78a45.12,45.12,0,0,1-19.35-16.44q-6.9-10.66-6.9-25.3v-82h34.76v79a21.17,21.17,0,0,0,2.62,10.6,18.85,18.85,0,0,0,7.29,7.29,22.79,22.79,0,0,0,21.22,0,18.88,18.88,0,0,0,7.25-7.29,21.08,21.08,0,0,0,2.63-10.6Z"/><polygon class="a" points="1117.01 184.15 1117.01 56.1 1151.77 56.1 1151.77 106.12 1197.79 106.12 1197.79 56.1 1232.55 56.1 1232.55 184.15 1197.79 184.15 1197.79 134.13 1151.77 134.13 1151.77 184.15 1117.01 184.15"/><path class="a" d="M1373.11,120.12q0,21.38-8.32,36a55.53,55.53,0,0,1-22.45,22.19,69.63,69.63,0,0,1-63.11-.06A55.76,55.76,0,0,1,1256.84,156q-8.28-14.65-8.28-35.92t8.28-36.05a55.33,55.33,0,0,1,22.39-22.19,69.88,69.88,0,0,1,63.11,0,55.53,55.53,0,0,1,22.45,22.19q8.31,14.67,8.32,36.05m-35.77,0q0-11.5-3-19.41a24.92,24.92,0,0,0-8.94-12q-5.91-4.1-14.54-4.09t-14.54,4.09a25,25,0,0,0-8.93,12q-3,7.91-3,19.41t3,19.41a25,25,0,0,0,8.93,12q5.91,4.1,14.54,4.09t14.54-4.09a24.92,24.92,0,0,0,8.94-12Q1337.34,131.63,1337.34,120.12Z"/><rect class="a" width="80.41" height="240.24"/></svg>